# xmcd
#
# Track frame offsets:
#	150
#	12260
#	26686
#	40805
#	53891
#	67894
#	80345
#	94975
#	108341
#	122879
#	136457
#	151216
#	164380
#	177793
#	189664
#	200828
#
# Disc length: 2846 seconds
# Revision: 0
# Processed by: cddbd v1.5.2PL0 Copyright (c) Steve Scherf et al.
# Submitted via: dBpowerAMP V12.0
#
DISCID=d70b1c10
DTITLE=Jimmy Rogers - Country Music Hall Of Fame
DYEAR=1900
DGENRE=
TTITLE0=Sweet Mama Hurry Home or I'll Be Gone
TTITLE1=I'm Lonesome Too
TTITLE2=When The Cactus Is In Bloom
TTITLE3=Cowboy's Last Ride
TTITLE4=Yodeling Cowboy
TTITLE5=Dreaming With Tears In My Eyes
TTITLE6=Roll Along Kentucky Moon
TTITLE7=I'm Free From The Chain Gang Now
TTITLE8=For The Sake Of Days Gone By
TTITLE9=The Soldier's Sweetheart
TTITLE10=Gambling Barroom Blues
TTITLE11=The Sailor's Plea
TTITLE12=Old Love Letters
TTITLE13=She Was Happy Till She Met You
TTITLE14=Mississippi River Blues
TTITLE15=T.B. Blues
EXTD=
EXTT0=
EXTT1=
EXTT2=
EXTT3=
EXTT4=
EXTT5=
EXTT6=
EXTT7=
EXTT8=
EXTT9=
EXTT10=
EXTT11=
EXTT12=
EXTT13=
EXTT14=
EXTT15=
PLAYORDER=
